# xmcd CD database file
#
# Track frame offsets:
#	150
#	19499
#	36048
#	50149
#	66471
#	83167
#	100613
#	116631
#	135637
#	152896
#	170705
#
# Disc length: 2575 seconds
#
# Revision: 0
# Processed by: cddbd v1.5.2PL0 Copyright (c) Steve Scherf et al.
# Submitted via: CdAid (MTCDDB.DLL V2003.12.21)
#
DISCID=9a0a0d0b
DTITLE=Brandon Heath - Blue Mountain
DYEAR=2012
DGENRE=Gospel
TTITLE0=The Harvester
TTITLE1=Jesus In Disguise
TTITLE2=Blue Mountain
TTITLE3=Diamond
TTITLE4=Love Will Be Enough For Us
TTITLE5=Love Does
TTITLE6=Paul Brown Petty
TTITLE7=In The Dust
TTITLE8=Dyin' Day
TTITLE9=Hands Of The Healer
TTITLE10=He Paid It All
EXTD=ID3G:  38 YEAR: 2012
EXTT0=
EXTT1=
EXTT2=
EXTT3=
EXTT4=
EXTT5=
EXTT6=
EXTT7=
EXTT8=
EXTT9=
EXTT10=
PLAYORDER=
